<svg width="66" height="93" viewBox="0 0 66 93" fill="none" xmlns="http://www.w3.org/2000/svg">
<g opacity="0.5" filter="url(#filter0_ddif_921_4012)">
<path d="M33.0249 10.9624H30.8744V12.9593H33.0249V10.9624Z" fill="#ADFFFA"/>
<path d="M35.0941 10.9624H32.9436V12.9593H35.0941V10.9624Z" fill="#ADFFFA"/>
<path d="M35.0941 13.0316H32.9436V15.0285H35.0941V13.0316Z" fill="#ADFFFA"/>
<path d="M37.1632 13.0316H35.0128V15.0285H37.1632V13.0316Z" fill="#ADFFFA"/>
<path d="M37.1632 15.1008H35.0128V17.0977H37.1632V15.1008Z" fill="#ADFFFA"/>
<path d="M39.2325 15.1008H37.082V17.0977H39.2325V15.1008Z" fill="#ADFFFA"/>
<path d="M41.3016 15.1008H39.1511V17.0977H41.3016V15.1008Z" fill="#ADFFFA"/>
<path d="M41.3016 13.0316H39.1511V15.0285H41.3016V13.0316Z" fill="#ADFFFA"/>
<path d="M43.3708 13.0316H41.2203V15.0285H43.3708V13.0316Z" fill="#ADFFFA"/>
<path d="M43.3708 10.9624H41.2203V12.9593H43.3708V10.9624Z" fill="#ADFFFA"/>
<path d="M45.44 10.9624H43.2895V12.9593H45.44V10.9624Z" fill="#ADFFFA"/>
<path d="M39.2325 17.1699H37.082V19.1668H39.2325V17.1699Z" fill="#ADFFFA"/>
</g>
<g filter="url(#filter1_ddif_921_4012)">
<path d="M30.4588 31H27.233V33.9953H30.4588V31Z" fill="#ADFFFA"/>
<path d="M33.5625 31H30.3368V33.9953H33.5625V31Z" fill="#ADFFFA"/>
<path d="M33.5625 34.1038H30.3368V37.0991H33.5625V34.1038Z" fill="#ADFFFA"/>
<path d="M36.6663 34.1038H33.4406V37.0991H36.6663V34.1038Z" fill="#ADFFFA"/>
<path d="M36.6663 37.2075H33.4406V40.2028H36.6663V37.2075Z" fill="#ADFFFA"/>
<path d="M39.77 37.2075H36.5443V40.2028H39.77V37.2075Z" fill="#ADFFFA"/>
<path d="M42.8738 37.2075H39.6481V40.2028H42.8738V37.2075Z" fill="#ADFFFA"/>
<path d="M42.8738 34.1038H39.6481V37.0991H42.8738V34.1038Z" fill="#ADFFFA"/>
<path d="M45.9776 34.1038H42.7519V37.0991H45.9776V34.1038Z" fill="#ADFFFA"/>
<path d="M45.9776 31H42.7519V33.9953H45.9776V31Z" fill="#ADFFFA"/>
<path d="M49.0814 31H45.8557V33.9953H49.0814V31Z" fill="#ADFFFA"/>
<path d="M39.77 40.3113H36.5443V43.3066H39.77V40.3113Z" fill="#ADFFFA"/>
</g>
<g opacity="0.25" filter="url(#filter2_ddif_921_4012)">
<path d="M27.8926 52H23.5916V55.9938H27.8926V52Z" fill="#ADFFFA"/>
<path d="M32.031 52H27.73V55.9938H32.031V52Z" fill="#ADFFFA"/>
<path d="M32.031 56.1384H27.73V60.1322H32.031V56.1384Z" fill="#ADFFFA"/>
<path d="M36.1693 56.1384H31.8683V60.1322H36.1693V56.1384Z" fill="#ADFFFA"/>
<path d="M36.1693 60.2767H31.8683V64.2705H36.1693V60.2767Z" fill="#ADFFFA"/>
<path d="M40.3077 60.2767H36.0067V64.2705H40.3077V60.2767Z" fill="#ADFFFA"/>
<path d="M44.4461 60.2767H40.1451V64.2705H44.4461V60.2767Z" fill="#ADFFFA"/>
<path d="M44.4461 56.1384H40.1451V60.1322H44.4461V56.1384Z" fill="#ADFFFA"/>
<path d="M48.5844 56.1384H44.2834V60.1322H48.5844V56.1384Z" fill="#ADFFFA"/>
<path d="M48.5844 52H44.2834V55.9938H48.5844V52Z" fill="#ADFFFA"/>
<path d="M52.7227 52H48.4218V55.9938H52.7227V52Z" fill="#ADFFFA"/>
<path d="M40.3077 64.415H36.0067V68.4088H40.3077V64.415Z" fill="#ADFFFA"/>
</g>
<defs>
<filter id="filter0_ddif_921_4012" x="19.4939" y="0.0992007" width="37.3266" height="30.9653" filterUnits="userSpaceOnUse" color-interpolation-filters="sRGB">
<feFlood flood-opacity="0" result="BackgroundImageFix"/>
<feColorMatrix in="SourceAlpha" type="matrix" values="0 0 0 0 0 0 0 0 0 0 0 0 0 0 0 0 0 0 127 0" result="hardAlpha"/>
<feOffset dy="0.517295"/>
<feGaussianBlur stdDeviation="1.55189"/>
<feComposite in2="hardAlpha" operator="out"/>
<feColorMatrix type="matrix" values="0 0 0 0 0.678431 0 0 0 0 1 0 0 0 0 0.980392 0 0 0 1 0"/>
<feBlend mode="normal" in2="BackgroundImageFix" result="effect1_dropShadow_921_4012"/>
<feColorMatrix in="SourceAlpha" type="matrix" values="0 0 0 0 0 0 0 0 0 0 0 0 0 0 0 0 0 0 127 0" result="hardAlpha"/>
<feOffset dy="0.517295"/>
<feGaussianBlur stdDeviation="5.69025"/>
<feComposite in2="hardAlpha" operator="out"/>
<feColorMatrix type="matrix" values="0 0 0 0 0.678431 0 0 0 0 1 0 0 0 0 0.980392 0 0 0 1 0"/>
<feBlend mode="normal" in2="effect1_dropShadow_921_4012" result="effect2_dropShadow_921_4012"/>
<feBlend mode="normal" in="SourceGraphic" in2="effect2_dropShadow_921_4012" result="shape"/>
<feColorMatrix in="SourceAlpha" type="matrix" values="0 0 0 0 0 0 0 0 0 0 0 0 0 0 0 0 0 0 127 0" result="hardAlpha"/>
<feOffset/>
<feGaussianBlur stdDeviation="3.10377"/>
<feComposite in2="hardAlpha" operator="arithmetic" k2="-1" k3="1"/>
<feColorMatrix type="matrix" values="0 0 0 0 0.678431 0 0 0 0 1 0 0 0 0 0.980392 0 0 0 1 0"/>
<feBlend mode="normal" in2="shape" result="effect3_innerShadow_921_4012"/>
<feGaussianBlur stdDeviation="0.129324" result="effect4_foregroundBlur_921_4012"/>
</filter>
<filter id="filter1_ddif_921_4012" x="10.1623" y="14.7052" width="55.9898" height="46.4481" filterUnits="userSpaceOnUse" color-interpolation-filters="sRGB">
<feFlood flood-opacity="0" result="BackgroundImageFix"/>
<feColorMatrix in="SourceAlpha" type="matrix" values="0 0 0 0 0 0 0 0 0 0 0 0 0 0 0 0 0 0 127 0" result="hardAlpha"/>
<feOffset dy="0.775943"/>
<feGaussianBlur stdDeviation="2.32783"/>
<feComposite in2="hardAlpha" operator="out"/>
<feColorMatrix type="matrix" values="0 0 0 0 0.678431 0 0 0 0 1 0 0 0 0 0.980392 0 0 0 1 0"/>
<feBlend mode="normal" in2="BackgroundImageFix" result="effect1_dropShadow_921_4012"/>
<feColorMatrix in="SourceAlpha" type="matrix" values="0 0 0 0 0 0 0 0 0 0 0 0 0 0 0 0 0 0 127 0" result="hardAlpha"/>
<feOffset dy="0.775943"/>
<feGaussianBlur stdDeviation="8.53537"/>
<feComposite in2="hardAlpha" operator="out"/>
<feColorMatrix type="matrix" values="0 0 0 0 0.678431 0 0 0 0 1 0 0 0 0 0.980392 0 0 0 1 0"/>
<feBlend mode="normal" in2="effect1_dropShadow_921_4012" result="effect2_dropShadow_921_4012"/>
<feBlend mode="normal" in="SourceGraphic" in2="effect2_dropShadow_921_4012" result="shape"/>
<feColorMatrix in="SourceAlpha" type="matrix" values="0 0 0 0 0 0 0 0 0 0 0 0 0 0 0 0 0 0 127 0" result="hardAlpha"/>
<feOffset/>
<feGaussianBlur stdDeviation="4.65566"/>
<feComposite in2="hardAlpha" operator="arithmetic" k2="-1" k3="1"/>
<feColorMatrix type="matrix" values="0 0 0 0 0.678431 0 0 0 0 1 0 0 0 0 0.980392 0 0 0 1 0"/>
<feBlend mode="normal" in2="shape" result="effect3_innerShadow_921_4012"/>
<feGaussianBlur stdDeviation="0.193986" result="effect4_foregroundBlur_921_4012"/>
</filter>
<filter id="filter2_ddif_921_4012" x="0.830631" y="30.2736" width="74.6531" height="61.9308" filterUnits="userSpaceOnUse" color-interpolation-filters="sRGB">
<feFlood flood-opacity="0" result="BackgroundImageFix"/>
<feColorMatrix in="SourceAlpha" type="matrix" values="0 0 0 0 0 0 0 0 0 0 0 0 0 0 0 0 0 0 127 0" result="hardAlpha"/>
<feOffset dy="1.03459"/>
<feGaussianBlur stdDeviation="3.10377"/>
<feComposite in2="hardAlpha" operator="out"/>
<feColorMatrix type="matrix" values="0 0 0 0 0.678431 0 0 0 0 1 0 0 0 0 0.980392 0 0 0 1 0"/>
<feBlend mode="normal" in2="BackgroundImageFix" result="effect1_dropShadow_921_4012"/>
<feColorMatrix in="SourceAlpha" type="matrix" values="0 0 0 0 0 0 0 0 0 0 0 0 0 0 0 0 0 0 127 0" result="hardAlpha"/>
<feOffset dy="1.03459"/>
<feGaussianBlur stdDeviation="11.3805"/>
<feComposite in2="hardAlpha" operator="out"/>
<feColorMatrix type="matrix" values="0 0 0 0 0.678431 0 0 0 0 1 0 0 0 0 0.980392 0 0 0 1 0"/>
<feBlend mode="normal" in2="effect1_dropShadow_921_4012" result="effect2_dropShadow_921_4012"/>
<feBlend mode="normal" in="SourceGraphic" in2="effect2_dropShadow_921_4012" result="shape"/>
<feColorMatrix in="SourceAlpha" type="matrix" values="0 0 0 0 0 0 0 0 0 0 0 0 0 0 0 0 0 0 127 0" result="hardAlpha"/>
<feOffset/>
<feGaussianBlur stdDeviation="6.20754"/>
<feComposite in2="hardAlpha" operator="arithmetic" k2="-1" k3="1"/>
<feColorMatrix type="matrix" values="0 0 0 0 0.678431 0 0 0 0 1 0 0 0 0 0.980392 0 0 0 1 0"/>
<feBlend mode="normal" in2="shape" result="effect3_innerShadow_921_4012"/>
<feGaussianBlur stdDeviation="0.258648" result="effect4_foregroundBlur_921_4012"/>
</filter>
</defs>
</svg>
