<svg width="66" height="93" viewBox="0 0 66 93" fill="none" xmlns="http://www.w3.org/2000/svg">
<g opacity="0.25" filter="url(#filter0_ddif_921_3932)">
<path d="M23.0249 10.9624H20.8744V12.9593H23.0249V10.9624Z" fill="#ADFFFA"/>
<path d="M25.0941 10.9624H22.9436V12.9593H25.0941V10.9624Z" fill="#ADFFFA"/>
<path d="M25.0941 13.0316H22.9436V15.0285H25.0941V13.0316Z" fill="#ADFFFA"/>
<path d="M27.1632 13.0316H25.0128V15.0285H27.1632V13.0316Z" fill="#ADFFFA"/>
<path d="M27.1632 15.1007H25.0128V17.0976H27.1632V15.1007Z" fill="#ADFFFA"/>
<path d="M29.2325 15.1007H27.082V17.0976H29.2325V15.1007Z" fill="#ADFFFA"/>
<path d="M31.3016 15.1007H29.1511V17.0976H31.3016V15.1007Z" fill="#ADFFFA"/>
<path d="M31.3016 13.0316H29.1511V15.0285H31.3016V13.0316Z" fill="#ADFFFA"/>
<path d="M33.3708 13.0316H31.2203V15.0285H33.3708V13.0316Z" fill="#ADFFFA"/>
<path d="M33.3708 10.9624H31.2203V12.9593H33.3708V10.9624Z" fill="#ADFFFA"/>
<path d="M35.44 10.9624H33.2895V12.9593H35.44V10.9624Z" fill="#ADFFFA"/>
<path d="M29.2325 17.1699H27.082V19.1668H29.2325V17.1699Z" fill="#ADFFFA"/>
</g>
<g opacity="0.5" filter="url(#filter1_ddif_921_3932)">
<path d="M20.4588 31H17.233V33.9953H20.4588V31Z" fill="#ADFFFA"/>
<path d="M23.5625 31H20.3368V33.9953H23.5625V31Z" fill="#ADFFFA"/>
<path d="M23.5625 34.1038H20.3368V37.0991H23.5625V34.1038Z" fill="#ADFFFA"/>
<path d="M26.6663 34.1038H23.4406V37.0991H26.6663V34.1038Z" fill="#ADFFFA"/>
<path d="M26.6663 37.2075H23.4406V40.2028H26.6663V37.2075Z" fill="#ADFFFA"/>
<path d="M29.77 37.2075H26.5443V40.2028H29.77V37.2075Z" fill="#ADFFFA"/>
<path d="M32.8738 37.2075H29.6481V40.2028H32.8738V37.2075Z" fill="#ADFFFA"/>
<path d="M32.8738 34.1038H29.6481V37.0991H32.8738V34.1038Z" fill="#ADFFFA"/>
<path d="M35.9776 34.1038H32.7519V37.0991H35.9776V34.1038Z" fill="#ADFFFA"/>
<path d="M35.9776 31H32.7519V33.9953H35.9776V31Z" fill="#ADFFFA"/>
<path d="M39.0814 31H35.8557V33.9953H39.0814V31Z" fill="#ADFFFA"/>
<path d="M29.77 40.3113H26.5443V43.3066H29.77V40.3113Z" fill="#ADFFFA"/>
</g>
<g filter="url(#filter2_ddif_921_3932)">
<path d="M17.8925 52H13.5916V55.9938H17.8925V52Z" fill="#ADFFFA"/>
<path d="M22.0309 52H17.7299V55.9938H22.0309V52Z" fill="#ADFFFA"/>
<path d="M22.0309 56.1383H17.7299V60.1321H22.0309V56.1383Z" fill="#ADFFFA"/>
<path d="M26.1693 56.1383H21.8683V60.1321H26.1693V56.1383Z" fill="#ADFFFA"/>
<path d="M26.1693 60.2767H21.8683V64.2705H26.1693V60.2767Z" fill="#ADFFFA"/>
<path d="M30.3076 60.2767H26.0067V64.2705H30.3076V60.2767Z" fill="#ADFFFA"/>
<path d="M34.446 60.2767H30.145V64.2705H34.446V60.2767Z" fill="#ADFFFA"/>
<path d="M34.446 56.1383H30.145V60.1321H34.446V56.1383Z" fill="#ADFFFA"/>
<path d="M38.5843 56.1383H34.2833V60.1321H38.5843V56.1383Z" fill="#ADFFFA"/>
<path d="M38.5843 52H34.2833V55.9938H38.5843V52Z" fill="#ADFFFA"/>
<path d="M42.7227 52H38.4217V55.9938H42.7227V52Z" fill="#ADFFFA"/>
<path d="M30.3076 64.415H26.0067V68.4088H30.3076V64.415Z" fill="#ADFFFA"/>
</g>
<defs>
<filter id="filter0_ddif_921_3932" x="9.49389" y="0.0992007" width="37.3266" height="30.9653" filterUnits="userSpaceOnUse" color-interpolation-filters="sRGB">
<feFlood flood-opacity="0" result="BackgroundImageFix"/>
<feColorMatrix in="SourceAlpha" type="matrix" values="0 0 0 0 0 0 0 0 0 0 0 0 0 0 0 0 0 0 127 0" result="hardAlpha"/>
<feOffset dy="0.517295"/>
<feGaussianBlur stdDeviation="1.55189"/>
<feComposite in2="hardAlpha" operator="out"/>
<feColorMatrix type="matrix" values="0 0 0 0 0.678431 0 0 0 0 1 0 0 0 0 0.980392 0 0 0 1 0"/>
<feBlend mode="normal" in2="BackgroundImageFix" result="effect1_dropShadow_921_3932"/>
<feColorMatrix in="SourceAlpha" type="matrix" values="0 0 0 0 0 0 0 0 0 0 0 0 0 0 0 0 0 0 127 0" result="hardAlpha"/>
<feOffset dy="0.517295"/>
<feGaussianBlur stdDeviation="5.69025"/>
<feComposite in2="hardAlpha" operator="out"/>
<feColorMatrix type="matrix" values="0 0 0 0 0.678431 0 0 0 0 1 0 0 0 0 0.980392 0 0 0 1 0"/>
<feBlend mode="normal" in2="effect1_dropShadow_921_3932" result="effect2_dropShadow_921_3932"/>
<feBlend mode="normal" in="SourceGraphic" in2="effect2_dropShadow_921_3932" result="shape"/>
<feColorMatrix in="SourceAlpha" type="matrix" values="0 0 0 0 0 0 0 0 0 0 0 0 0 0 0 0 0 0 127 0" result="hardAlpha"/>
<feOffset/>
<feGaussianBlur stdDeviation="3.10377"/>
<feComposite in2="hardAlpha" operator="arithmetic" k2="-1" k3="1"/>
<feColorMatrix type="matrix" values="0 0 0 0 0.678431 0 0 0 0 1 0 0 0 0 0.980392 0 0 0 1 0"/>
<feBlend mode="normal" in2="shape" result="effect3_innerShadow_921_3932"/>
<feGaussianBlur stdDeviation="0.129324" result="effect4_foregroundBlur_921_3932"/>
</filter>
<filter id="filter1_ddif_921_3932" x="0.162287" y="14.7052" width="55.9898" height="46.4481" filterUnits="userSpaceOnUse" color-interpolation-filters="sRGB">
<feFlood flood-opacity="0" result="BackgroundImageFix"/>
<feColorMatrix in="SourceAlpha" type="matrix" values="0 0 0 0 0 0 0 0 0 0 0 0 0 0 0 0 0 0 127 0" result="hardAlpha"/>
<feOffset dy="0.775943"/>
<feGaussianBlur stdDeviation="2.32783"/>
<feComposite in2="hardAlpha" operator="out"/>
<feColorMatrix type="matrix" values="0 0 0 0 0.678431 0 0 0 0 1 0 0 0 0 0.980392 0 0 0 1 0"/>
<feBlend mode="normal" in2="BackgroundImageFix" result="effect1_dropShadow_921_3932"/>
<feColorMatrix in="SourceAlpha" type="matrix" values="0 0 0 0 0 0 0 0 0 0 0 0 0 0 0 0 0 0 127 0" result="hardAlpha"/>
<feOffset dy="0.775943"/>
<feGaussianBlur stdDeviation="8.53537"/>
<feComposite in2="hardAlpha" operator="out"/>
<feColorMatrix type="matrix" values="0 0 0 0 0.678431 0 0 0 0 1 0 0 0 0 0.980392 0 0 0 1 0"/>
<feBlend mode="normal" in2="effect1_dropShadow_921_3932" result="effect2_dropShadow_921_3932"/>
<feBlend mode="normal" in="SourceGraphic" in2="effect2_dropShadow_921_3932" result="shape"/>
<feColorMatrix in="SourceAlpha" type="matrix" values="0 0 0 0 0 0 0 0 0 0 0 0 0 0 0 0 0 0 127 0" result="hardAlpha"/>
<feOffset/>
<feGaussianBlur stdDeviation="4.65566"/>
<feComposite in2="hardAlpha" operator="arithmetic" k2="-1" k3="1"/>
<feColorMatrix type="matrix" values="0 0 0 0 0.678431 0 0 0 0 1 0 0 0 0 0.980392 0 0 0 1 0"/>
<feBlend mode="normal" in2="shape" result="effect3_innerShadow_921_3932"/>
<feGaussianBlur stdDeviation="0.193986" result="effect4_foregroundBlur_921_3932"/>
</filter>
<filter id="filter2_ddif_921_3932" x="-9.16943" y="30.2736" width="74.6531" height="61.9308" filterUnits="userSpaceOnUse" color-interpolation-filters="sRGB">
<feFlood flood-opacity="0" result="BackgroundImageFix"/>
<feColorMatrix in="SourceAlpha" type="matrix" values="0 0 0 0 0 0 0 0 0 0 0 0 0 0 0 0 0 0 127 0" result="hardAlpha"/>
<feOffset dy="1.03459"/>
<feGaussianBlur stdDeviation="3.10377"/>
<feComposite in2="hardAlpha" operator="out"/>
<feColorMatrix type="matrix" values="0 0 0 0 0.678431 0 0 0 0 1 0 0 0 0 0.980392 0 0 0 1 0"/>
<feBlend mode="normal" in2="BackgroundImageFix" result="effect1_dropShadow_921_3932"/>
<feColorMatrix in="SourceAlpha" type="matrix" values="0 0 0 0 0 0 0 0 0 0 0 0 0 0 0 0 0 0 127 0" result="hardAlpha"/>
<feOffset dy="1.03459"/>
<feGaussianBlur stdDeviation="11.3805"/>
<feComposite in2="hardAlpha" operator="out"/>
<feColorMatrix type="matrix" values="0 0 0 0 0.678431 0 0 0 0 1 0 0 0 0 0.980392 0 0 0 1 0"/>
<feBlend mode="normal" in2="effect1_dropShadow_921_3932" result="effect2_dropShadow_921_3932"/>
<feBlend mode="normal" in="SourceGraphic" in2="effect2_dropShadow_921_3932" result="shape"/>
<feColorMatrix in="SourceAlpha" type="matrix" values="0 0 0 0 0 0 0 0 0 0 0 0 0 0 0 0 0 0 127 0" result="hardAlpha"/>
<feOffset/>
<feGaussianBlur stdDeviation="6.20754"/>
<feComposite in2="hardAlpha" operator="arithmetic" k2="-1" k3="1"/>
<feColorMatrix type="matrix" values="0 0 0 0 0.678431 0 0 0 0 1 0 0 0 0 0.980392 0 0 0 1 0"/>
<feBlend mode="normal" in2="shape" result="effect3_innerShadow_921_3932"/>
<feGaussianBlur stdDeviation="0.258648" result="effect4_foregroundBlur_921_3932"/>
</filter>
</defs>
</svg>
