<svg width="34" height="34" viewBox="0 0 34 34" fill="none" xmlns="http://www.w3.org/2000/svg">
<g id="ph:copy">
<path id="Subtract" fill-rule="evenodd" clip-rule="evenodd" d="M11.6875 4.25H28.6875C28.9693 4.25 29.2395 4.36194 29.4388 4.5612C29.6381 4.76046 29.75 5.03071 29.75 5.3125V22.3125C29.75 22.5943 29.6381 22.8645 29.4388 23.0638C29.2395 23.2631 28.9693 23.375 28.6875 23.375H23.375V28.6875C23.375 28.9693 23.2631 29.2395 23.0638 29.4388C22.8645 29.6381 22.5943 29.75 22.3125 29.75H5.3125C5.03071 29.75 4.76046 29.6381 4.5612 29.4388C4.36194 29.2395 4.25 28.9693 4.25 28.6875V11.6875C4.25 11.4057 4.36194 11.1355 4.5612 10.9362C4.76046 10.7369 5.03071 10.625 5.3125 10.625H10.625V5.3125C10.625 5.03071 10.7369 4.76046 10.9362 4.5612C11.1355 4.36194 11.4057 4.25 11.6875 4.25ZM23.375 21.25H27.625V6.375H12.75V10.625H22.3125C22.5943 10.625 22.8645 10.7369 23.0638 10.9362C23.2631 11.1355 23.375 11.4057 23.375 11.6875V21.25ZM13 26V21H8V19H13V14H15V19H20V21H15V26H13Z" fill="black"/>
</g>
</svg>
